<svg viewBox="0 0 190.86 50" data-name="Layer 1" id="Layer_1" xmlns="http://www.w3.org/2000/svg"><defs><style>.cls-1{fill:#010101;stroke:#010101;stroke-miterlimit:10;stroke-width:0.11px;}.cls-2{fill:none;stroke:#929497;stroke-width:0.72px;}.cls-3{fill:#6e6f72;}.cls-4{fill:#221f1f;}.cls-5{fill:#ba2027;}</style></defs><path d="M3.78,44a1.34,1.34,0,0,0,0-.43c0-.08-.11-.12-.23-.12H3.38v-.07H4.57v.07H4.45a.22.22,0,0,0-.22.12,1.34,1.34,0,0,0-.05.43v4.39H3.8L.86,44.17v3.59a1,1,0,0,0,.05.41c0,.08.11.11.22.11h.11v.08H.05v-.08H.17c.12,0,.2,0,.23-.11a1.28,1.28,0,0,0,0-.41v-4l-.12-.23s0-.06-.08-.07H.05v-.07H1c.46.69.91,1.36,1.37,2s.91,1.31,1.38,2Z" class="cls-1"></path><path d="M7.82,48.3a1.45,1.45,0,0,1-.58.14,1.1,1.1,0,0,1-.41-.07.79.79,0,0,1-.3-.2.84.84,0,0,1-.2-.29.86.86,0,0,1-.07-.36,1.06,1.06,0,0,1,.1-.5,1,1,0,0,1,.26-.34,1.2,1.2,0,0,1,.39-.2,3,3,0,0,1,.45-.13l.46-.1.43-.11v-.36a.75.75,0,0,0-.18-.56.73.73,0,0,0-.51-.17,1.12,1.12,0,0,0-.48.1.63.63,0,0,0-.32.25l0,.15a.1.1,0,0,1-.1.09l-.09,0c-.1,0-.16-.12-.16-.27s.16-.27.38-.39a1.65,1.65,0,0,1,.81-.18A1,1,0,0,1,8.86,45.9v1.8a1.51,1.51,0,0,0,0,.34c0,.08.06.13.11.13l.11,0a.21.21,0,0,0,.08,0v.11a1.46,1.46,0,0,1-.25.13.81.81,0,0,1-.31.06.2.2,0,0,1-.19-.15,1.45,1.45,0,0,1-.07-.41A1.57,1.57,0,0,1,7.82,48.3Zm.53-1.88-.46.11-.45.14a1.29,1.29,0,0,0-.33.18.6.6,0,0,0-.22.23.66.66,0,0,0-.07.32.64.64,0,0,0,.16.45.58.58,0,0,0,.47.18A.78.78,0,0,0,7.8,48a.9.9,0,0,0,.29-.16.79.79,0,0,0,.19-.25.59.59,0,0,0,.07-.29Z" class="cls-1"></path><path d="M14.14,48.24a.08.08,0,0,0,.08.06h0v.06h-.93V48.3h.07c.08,0,.13,0,.15-.07a.45.45,0,0,0,0-.24V46a1,1,0,0,0-.18-.62.59.59,0,0,0-.51-.23.82.82,0,0,0-.61.24A1.17,1.17,0,0,0,12,46v2a1,1,0,0,0,0,.23.09.09,0,0,0,.1.06h.05v.06h-1V48.3h.08a.14.14,0,0,0,.14-.07.62.62,0,0,0,0-.24V45.31a.76.76,0,0,0,0-.17.07.07,0,0,0-.07-.06H11.3l-.12,0v0l.63-.18.14,0v.65a2.05,2.05,0,0,1,.51-.51,1.17,1.17,0,0,1,.64-.17.94.94,0,0,1,.75.32,1.39,1.39,0,0,1,.27.91v2A1,1,0,0,0,14.14,48.24Z" class="cls-1"></path><path d="M18.37,44.86h.77v.06a.17.17,0,0,0-.1,0,.23.23,0,0,0-.08.12l-1.37,3.71a2.59,2.59,0,0,1-.43.81.77.77,0,0,1-.64.36.8.8,0,0,1-.36-.08.37.37,0,0,1-.16-.18.38.38,0,0,1,.07-.22.29.29,0,0,1,.14-.13l.29,0,.16.05c.24,0,.45-.27.61-.79l.12-.35L16.07,45A.13.13,0,0,0,16,45a.24.24,0,0,0-.12,0v-.06h1.05v.06a.6.6,0,0,0-.2,0,.1.1,0,0,0-.05.08.51.51,0,0,0,0,.09l1,2.51.9-2.6s0-.07,0-.08a.33.33,0,0,0-.15,0Z" class="cls-1"></path><path d="M22.37,48.3a1.41,1.41,0,0,1-.58.14,1.1,1.1,0,0,1-.41-.07.79.79,0,0,1-.3-.2.84.84,0,0,1-.2-.29.86.86,0,0,1-.07-.36,1.06,1.06,0,0,1,.1-.5,1,1,0,0,1,.27-.34,1.15,1.15,0,0,1,.38-.2,3,3,0,0,1,.45-.13l.46-.1.43-.11v-.36a.75.75,0,0,0-.18-.56.73.73,0,0,0-.51-.17,1.12,1.12,0,0,0-.48.1.63.63,0,0,0-.32.25l0,.15a.1.1,0,0,1-.1.09l-.08,0c-.11,0-.17-.12-.17-.27s.16-.27.38-.39a1.65,1.65,0,0,1,.81-.18,1,1,0,0,1,1.14,1.12v1.8a1.51,1.51,0,0,0,0,.34c0,.08.06.13.11.13l.11,0a.21.21,0,0,0,.08,0v.11l-.26.13a.81.81,0,0,1-.31.06.21.21,0,0,1-.19-.15,1.45,1.45,0,0,1-.07-.41A1.57,1.57,0,0,1,22.37,48.3Zm.53-1.88-.46.11-.44.14a1.2,1.2,0,0,0-.34.18.6.6,0,0,0-.22.23.66.66,0,0,0-.07.32.64.64,0,0,0,.16.45A.58.58,0,0,0,22,48a.86.86,0,0,0,.36-.07,1,1,0,0,0,.28-.16.79.79,0,0,0,.19-.25.59.59,0,0,0,.07-.29Z" class="cls-1"></path><path d="M28.69,48.24a.08.08,0,0,0,.08.06h0v.06h-.93V48.3H28a.17.17,0,0,0,.16-.07.62.62,0,0,0,0-.24V46A1,1,0,0,0,28,45.4a.59.59,0,0,0-.51-.23.82.82,0,0,0-.61.24,1.17,1.17,0,0,0-.32.6v2a1,1,0,0,0,0,.23.1.1,0,0,0,.1.06h.05v.06h-.94V48.3h.07a.14.14,0,0,0,.14-.07A.57.57,0,0,0,26,48V45.31a.65.65,0,0,0,0-.17.07.07,0,0,0-.07-.06h-.06l-.12,0v0l.63-.18.14,0v.65A2.05,2.05,0,0,1,27,45a1.17,1.17,0,0,1,.64-.17.94.94,0,0,1,.75.32,1.39,1.39,0,0,1,.27.91v2A1,1,0,0,0,28.69,48.24Z" class="cls-1"></path><path d="M31.13,45.14a1.28,1.28,0,0,1,.94-.36,1.32,1.32,0,0,1,.77.21h.21l.21,0,.25,0h.3v.36l-.43,0a.38.38,0,0,0-.19,0,1,1,0,0,0,.05.12,1.86,1.86,0,0,1,.09.28A1.2,1.2,0,0,1,33,46.94a1.21,1.21,0,0,1-.89.36,1.65,1.65,0,0,1-.46-.06.77.77,0,0,0-.24.14.39.39,0,0,0-.18.29s0,.09.1.13a1,1,0,0,0,.25.07l.39.05.49,0A3.46,3.46,0,0,1,33,48a1.92,1.92,0,0,1,.42.16.67.67,0,0,1,.38.63,1,1,0,0,1-.54.83,2.51,2.51,0,0,1-1.28.32,2.35,2.35,0,0,1-1.08-.22.67.67,0,0,1-.4-.6.64.64,0,0,1,.23-.51,2.13,2.13,0,0,1,.22-.18,1.67,1.67,0,0,1,.28-.18c-.25-.13-.38-.27-.38-.44a.56.56,0,0,1,.18-.37l.18-.17.2-.16L31.24,47a.39.39,0,0,1-.1-.08,1.13,1.13,0,0,1-.39-.88A1.24,1.24,0,0,1,31.13,45.14Zm0,3.49A.49.49,0,0,0,31,49a.46.46,0,0,0,.28.4,1.81,1.81,0,0,0,.88.16,2.29,2.29,0,0,0,.92-.17.54.54,0,0,0,.41-.5c0-.15-.09-.26-.29-.34a2.78,2.78,0,0,0-.84-.12l-.37,0-.43-.05A1.44,1.44,0,0,0,31.11,48.63Zm.38-3.36a.84.84,0,0,0-.2.59,1.42,1.42,0,0,0,.23.84.76.76,0,0,0,.64.31.67.67,0,0,0,.52-.21.93.93,0,0,0,.18-.6,1.63,1.63,0,0,0-.06-.45,1.16,1.16,0,0,0-.18-.37.72.72,0,0,0-.6-.33A.67.67,0,0,0,31.49,45.27Z" class="cls-1"></path><path d="M41,48.21s.11.07.23.07h.12v.08H39.91v-.08H40c.12,0,.2,0,.23-.07a.52.52,0,0,0,0-.29V43.76h-1a1,1,0,0,0-.36.06c-.1,0-.17.19-.22.44h-.1l0-.88h3.87l0,.88h-.1c0-.25-.12-.4-.22-.44a.92.92,0,0,0-.37-.06h-1v4.16A.62.62,0,0,0,41,48.21Z" class="cls-1"></path><path d="M45.67,47.85a2.35,2.35,0,0,1-.33.3,2,2,0,0,1-.41.2,1.11,1.11,0,0,1-.44.08A1.32,1.32,0,0,1,43.4,48,2,2,0,0,1,43,46.68a2.08,2.08,0,0,1,.43-1.37,1.36,1.36,0,0,1,1.11-.53,1.12,1.12,0,0,1,1,.43,2.31,2.31,0,0,1,.39,1.16v.07H43.48a1.89,1.89,0,0,0,.32,1.1,1.07,1.07,0,0,0,.91.44,1.25,1.25,0,0,0,.7-.2,1.47,1.47,0,0,0,.4-.37l.11.1A1.48,1.48,0,0,1,45.67,47.85Zm-.39-1.71a1.43,1.43,0,0,0-.23-.76.67.67,0,0,0-.58-.28.9.9,0,0,0-.73.35,1.56,1.56,0,0,0-.25.69Z" class="cls-1"></path><path d="M50.78,47.71a1.45,1.45,0,0,1-.48.53,1.34,1.34,0,0,1-.74.19,1.41,1.41,0,0,1-1.14-.49,2.11,2.11,0,0,1,.06-2.63,1.58,1.58,0,0,1,1.24-.53,1.62,1.62,0,0,1,.65.14.71.71,0,0,1,.36.34.29.29,0,0,1-.2.27h-.05c-.08,0-.14-.06-.18-.2a.45.45,0,0,0-.23-.19.86.86,0,0,0-.36-.07,1.26,1.26,0,0,0-.49.1,1,1,0,0,0-.38.3,1.22,1.22,0,0,0-.25.45,2.08,2.08,0,0,0-.08.58,1.62,1.62,0,0,0,.34,1,1.14,1.14,0,0,0,.9.42,1,1,0,0,0,.63-.19,1,1,0,0,0,.33-.3Z" class="cls-1"></path><path d="M55.62,48.24s.07.06.15.06h.07v.06H54.77V48.3h.08c.09,0,.14,0,.17-.07a.45.45,0,0,0,0-.24V46a1,1,0,0,0-.18-.62.65.65,0,0,0-.54-.23.88.88,0,0,0-.63.24,1.17,1.17,0,0,0-.32.6v2a.56.56,0,0,0,0,.23.19.19,0,0,0,.17.06h.08v.06H52.6V48.3h.08c.07,0,.12,0,.14-.07a.45.45,0,0,0,0-.24v-4.4a.81.81,0,0,0,0-.17s0-.05-.07-.05h-.06l-.11,0v0l.64-.19h.14v2.34a1.87,1.87,0,0,1,.5-.51,1.23,1.23,0,0,1,.65-.17,1,1,0,0,1,.77.32,1.34,1.34,0,0,1,.28.91v2A.56.56,0,0,0,55.62,48.24Z" class="cls-1"></path><path d="M60.86,48.24a.1.1,0,0,0,.09.06h0v.06h-.94V48.3h.08c.07,0,.13,0,.15-.07a.57.57,0,0,0,0-.24V46a1,1,0,0,0-.18-.62.59.59,0,0,0-.51-.23.84.84,0,0,0-.62.24,1.16,1.16,0,0,0-.31.6v2a1,1,0,0,0,0,.23s0,.06.1.06h0v.06h-.94V48.3H58c.07,0,.12,0,.14-.07a.45.45,0,0,0,0-.24V45.31a.76.76,0,0,0,0-.17.08.08,0,0,0-.08-.06H58l-.11,0v0l.63-.18.14,0v.65a1.87,1.87,0,0,1,.5-.51,1.2,1.2,0,0,1,.64-.17,1,1,0,0,1,.76.32,1.39,1.39,0,0,1,.27.91v2A1.23,1.23,0,0,0,60.86,48.24Z" class="cls-1"></path><path d="M65.83,47.93a1.55,1.55,0,0,1-1.21.5,1.52,1.52,0,0,1-1.21-.5A1.88,1.88,0,0,1,63,46.61a1.92,1.92,0,0,1,.46-1.33,1.71,1.71,0,0,1,2.42,0,2.14,2.14,0,0,1,0,2.65ZM65.63,46a1.74,1.74,0,0,0-.25-.49,1,1,0,0,0-.83-.44.88.88,0,0,0-.77.44,2,2,0,0,0-.26,1.11,2.06,2.06,0,0,0,.09.62,1.62,1.62,0,0,0,.25.49,1,1,0,0,0,.82.43.88.88,0,0,0,.78-.43,2.12,2.12,0,0,0,.27-1.11A2.87,2.87,0,0,0,65.63,46Z" class="cls-1"></path><path d="M68.18,43.31l.73-.19H69V48a.56.56,0,0,0,0,.23s.06.06.13.06h.06v.06H68.19V48.3h.1c.09,0,.15,0,.18-.07a.43.43,0,0,0,0-.24v-4.4a.72.72,0,0,0,0-.17s0-.05-.09-.05h-.08l-.15,0Z" class="cls-1"></path><path d="M74.1,47.93a1.57,1.57,0,0,1-1.22.5,1.53,1.53,0,0,1-1.21-.5,1.93,1.93,0,0,1-.46-1.32,2,2,0,0,1,.46-1.33,1.73,1.73,0,0,1,2.43,0,2.14,2.14,0,0,1,0,2.65ZM73.89,46a1.51,1.51,0,0,0-.25-.49,1,1,0,0,0-.82-.44.89.89,0,0,0-.78.44,2,2,0,0,0-.26,1.11,2.44,2.44,0,0,0,.1.62,1.42,1.42,0,0,0,.25.49,1,1,0,0,0,.82.43.87.87,0,0,0,.77-.43A2,2,0,0,0,74,46.61,2.37,2.37,0,0,0,73.89,46Z" class="cls-1"></path><path d="M77,45.14A1.45,1.45,0,0,1,78.71,45h.22l.2,0,.25,0h.3v.36l-.43,0a.41.41,0,0,0-.19,0,1,1,0,0,0,0,.12,1.86,1.86,0,0,1,.09.28,1.24,1.24,0,0,1,0,.31A1.25,1.25,0,0,1,78,47.3a1.53,1.53,0,0,1-.45-.06.71.71,0,0,0-.25.14.41.41,0,0,0-.17.29s0,.09.09.13a1.09,1.09,0,0,0,.25.07l.39.05.49,0a3.61,3.61,0,0,1,.5.06,2.05,2.05,0,0,1,.41.16.66.66,0,0,1,.38.63,1,1,0,0,1-.54.83,2.47,2.47,0,0,1-1.27.32,2.36,2.36,0,0,1-1.09-.22.69.69,0,0,1-.4-.6.68.68,0,0,1,.23-.51,2.31,2.31,0,0,1,.23-.18,1.27,1.27,0,0,1,.27-.18c-.25-.13-.38-.27-.38-.44a.58.58,0,0,1,.19-.37l.17-.17.2-.16L77.11,47A.34.34,0,0,1,77,47a1.13,1.13,0,0,1-.39-.88A1.23,1.23,0,0,1,77,45.14Zm0,3.49a.53.53,0,0,0-.16.35.48.48,0,0,0,.28.4,1.83,1.83,0,0,0,.89.16,2.24,2.24,0,0,0,.91-.17c.28-.11.42-.28.42-.5s-.1-.26-.29-.34a2.91,2.91,0,0,0-.85-.12l-.36,0-.44-.05A1.61,1.61,0,0,0,77,48.63Zm.38-3.36a.84.84,0,0,0-.2.59,1.42,1.42,0,0,0,.23.84A.76.76,0,0,0,78,47a.67.67,0,0,0,.52-.21.94.94,0,0,0,.19-.6,1.33,1.33,0,0,0-.07-.45,1.16,1.16,0,0,0-.18-.37.71.71,0,0,0-.59-.33A.67.67,0,0,0,77.36,45.27Z" class="cls-1"></path><path d="M82.65,48.24s.06.06.13.06h.06v.06H81.77V48.3h.1c.09,0,.15,0,.18-.07a.43.43,0,0,0,0-.24V45.34a.74.74,0,0,0,0-.18s0,0-.09,0h-.08l-.14,0v0l.72-.25h.14V48A.62.62,0,0,0,82.65,48.24Zm-.47-5a.29.29,0,0,1,.44,0,.36.36,0,0,1,.09.24.33.33,0,0,1-.09.23.27.27,0,0,1-.44,0,.33.33,0,0,1-.09-.23A.36.36,0,0,1,82.18,43.29Z" class="cls-1"></path><path d="M87.59,47.71a1.54,1.54,0,0,1-.48.53,1.34,1.34,0,0,1-.74.19,1.41,1.41,0,0,1-1.14-.49,2.11,2.11,0,0,1,.06-2.63,1.56,1.56,0,0,1,1.23-.53,1.66,1.66,0,0,1,.66.14.71.71,0,0,1,.36.34.29.29,0,0,1-.2.27h0c-.09,0-.15-.06-.18-.2a.45.45,0,0,0-.23-.19.87.87,0,0,0-.37-.07,1.3,1.3,0,0,0-.49.1,1.2,1.2,0,0,0-.38.3,1.37,1.37,0,0,0-.24.45,1.77,1.77,0,0,0-.08.58,1.62,1.62,0,0,0,.34,1,1.14,1.14,0,0,0,.9.42,1,1,0,0,0,.62-.19.82.82,0,0,0,.33-.3Z" class="cls-1"></path><path d="M91.21,48.3a1.41,1.41,0,0,1-.58.14,1.05,1.05,0,0,1-.4-.07.83.83,0,0,1-.31-.2,1,1,0,0,1-.2-.29,1,1,0,0,1-.07-.36,1.2,1.2,0,0,1,.1-.5,1,1,0,0,1,.27-.34,1.25,1.25,0,0,1,.38-.2,3.33,3.33,0,0,1,.45-.13l.46-.1a3.83,3.83,0,0,0,.43-.11v-.36a.75.75,0,0,0-.18-.56.73.73,0,0,0-.51-.17,1.07,1.07,0,0,0-.47.1.59.59,0,0,0-.32.25v.15a.09.09,0,0,1-.1.09l-.08,0c-.11,0-.16-.12-.16-.27A.65.65,0,0,1,90.3,45a1.69,1.69,0,0,1,.82-.18,1,1,0,0,1,1.14,1.12v1.8a1.58,1.58,0,0,0,0,.34c0,.08.07.13.11.13l.11,0,.09,0v.11l-.26.13a.78.78,0,0,1-.31.06c-.08,0-.14,0-.19-.15a1.45,1.45,0,0,1-.07-.41A1.49,1.49,0,0,1,91.21,48.3Zm.53-1.88-.45.11-.45.14a1.36,1.36,0,0,0-.34.18.65.65,0,0,0-.29.55.69.69,0,0,0,.16.45.6.6,0,0,0,.48.18A.84.84,0,0,0,91.2,48a.85.85,0,0,0,.28-.16.67.67,0,0,0,.19-.25.59.59,0,0,0,.07-.29Z" class="cls-1"></path><path d="M94.6,43.31l.72-.19h.14V48a.62.62,0,0,0,0,.23s.06.06.13.06h.06v.06H94.6V48.3h.1c.09,0,.15,0,.18-.07a.43.43,0,0,0,.05-.24v-4.4a.72.72,0,0,0,0-.17s0-.05-.09-.05h-.08l-.14,0Z" class="cls-1"></path><path d="M104.58,44a1.57,1.57,0,0,0,0-.46.23.23,0,0,0-.22-.13h-.11v-.07h1.17v.07h-.11a.21.21,0,0,0-.22.13A1.23,1.23,0,0,0,105,44v2.58A1.81,1.81,0,0,1,104.5,48a1.87,1.87,0,0,1-3.24-1.37V43.81a.5.5,0,0,0-.05-.28.23.23,0,0,0-.21-.08h-.11v-.07h1.37v.07h-.11a.23.23,0,0,0-.21.08.6.6,0,0,0,0,.28v2.81c0,1,.44,1.46,1.33,1.46a1.31,1.31,0,0,0,1-.37,1.36,1.36,0,0,0,.36-1Z" class="cls-1"></path><path d="M110,48.24a.08.08,0,0,0,.08.06h0v.06h-.94V48.3h.08c.07,0,.13,0,.15-.07a.57.57,0,0,0,0-.24V46a1,1,0,0,0-.18-.62.59.59,0,0,0-.51-.23.84.84,0,0,0-.62.24,1.16,1.16,0,0,0-.31.6v2a1,1,0,0,0,0,.23s0,.06.1.06h0v.06h-.94V48.3h.07c.07,0,.12,0,.14-.07a.45.45,0,0,0,0-.24V45.31a.76.76,0,0,0,0-.17.08.08,0,0,0-.08-.06h-.06l-.11,0v0l.63-.18.14,0v.65a1.87,1.87,0,0,1,.5-.51,1.2,1.2,0,0,1,.64-.17,1,1,0,0,1,.76.32A1.39,1.39,0,0,1,110,46v2A.62.62,0,0,0,110,48.24Z" class="cls-1"></path><path d="M113.07,48.24s.06.06.13.06h.06v.06h-1.07V48.3h.1a.21.21,0,0,0,.18-.07.45.45,0,0,0,0-.24V45.34a.87.87,0,0,0,0-.18s0,0-.1,0h-.07l-.15,0v0l.72-.25H113V48A.56.56,0,0,0,113.07,48.24Zm-.47-5a.26.26,0,0,1,.22-.1.28.28,0,0,1,.22.1.35.35,0,0,1,.08.24.32.32,0,0,1-.08.23.29.29,0,0,1-.22.11.27.27,0,0,1-.22-.11.33.33,0,0,1-.09-.23A.36.36,0,0,1,112.6,43.29Z" class="cls-1"></path><path d="M116.93,48.35a.31.31,0,0,1-.34,0l-1.22-3.2c0-.1-.08-.17-.13-.19a.23.23,0,0,0-.14,0v-.06h1v.06c-.1,0-.16,0-.18.07v0a.31.31,0,0,0,0,.13l.9,2.53.88-2.46a.54.54,0,0,0,0-.18s0-.07,0-.08a.21.21,0,0,0-.15,0v-.06h.79v.06a.26.26,0,0,0-.14.06.67.67,0,0,0-.13.25Z" class="cls-1"></path><path d="M122.66,47.85a2.43,2.43,0,0,1-.34.3,2,2,0,0,1-.41.2,1.11,1.11,0,0,1-.44.08,1.34,1.34,0,0,1-1.09-.46,2,2,0,0,1-.39-1.29,2.08,2.08,0,0,1,.43-1.37,1.36,1.36,0,0,1,1.12-.53,1.1,1.1,0,0,1,1,.43,2.22,2.22,0,0,1,.4,1.16v.07h-2.44a1.89,1.89,0,0,0,.33,1.1,1,1,0,0,0,.9.44,1.25,1.25,0,0,0,.7-.2,1.47,1.47,0,0,0,.4-.37l.11.1A1.77,1.77,0,0,1,122.66,47.85Zm-.4-1.71a1.43,1.43,0,0,0-.23-.76.66.66,0,0,0-.58-.28.87.87,0,0,0-.72.35,1.44,1.44,0,0,0-.25.69Z" class="cls-1"></path><path d="M125.62,48.24s.1.06.21.06h.1v.06h-1.17V48.3h.08a.18.18,0,0,0,.17-.07.45.45,0,0,0,0-.24V45.31a.76.76,0,0,0,0-.17.08.08,0,0,0-.09-.06h-.06l-.13,0v0l.66-.22h.14v.75A1.71,1.71,0,0,1,126,45a.84.84,0,0,1,.52-.18.39.39,0,0,1,.23.06.34.34,0,0,1,.11.18.28.28,0,0,1-.11.26.24.24,0,0,1-.14.06h0a.31.31,0,0,0-.14-.07l-.15,0a.58.58,0,0,0-.47.3,1.26,1.26,0,0,0-.16.33,1.42,1.42,0,0,0,0,.36V48A.41.41,0,0,0,125.62,48.24Z" class="cls-1"></path><path d="M130.66,48.16a1.28,1.28,0,0,1-.85.28,2.31,2.31,0,0,1-.52-.06l-.39-.09a.11.11,0,0,0-.09.05h-.05v-.81l.08,0a.8.8,0,0,0,.34.5,1,1,0,0,0,.61.19.79.79,0,0,0,.5-.16.55.55,0,0,0,.2-.43.53.53,0,0,0-.06-.26,1,1,0,0,0-.17-.21A1.56,1.56,0,0,0,130,47l-.31-.16a3.37,3.37,0,0,1-.6-.37.85.85,0,0,1-.32-.69,1,1,0,0,1,.08-.4.86.86,0,0,1,.23-.3,1.25,1.25,0,0,1,.34-.19,1.51,1.51,0,0,1,.44-.06,1.62,1.62,0,0,1,.47.07l.2.06.12,0,.06-.19h0l0,.9h-.08a1,1,0,0,0-.32-.42.82.82,0,0,0-.5-.17.73.73,0,0,0-.5.15.49.49,0,0,0-.16.38.48.48,0,0,0,.19.4,3.53,3.53,0,0,0,.6.35l.41.23a1.35,1.35,0,0,1,.31.25.73.73,0,0,1,.19.28.86.86,0,0,1,.07.36A.91.91,0,0,1,130.66,48.16Z" class="cls-1"></path><path d="M133.77,48.24s.06.06.13.06h0v.06h-1.06V48.3H133c.09,0,.15,0,.18-.07s.05-.12.05-.24V45.34a.87.87,0,0,0,0-.18s0,0-.1,0H133l-.15,0v0l.72-.25h.14V48A.56.56,0,0,0,133.77,48.24Zm-.48-5a.29.29,0,0,1,.44,0,.36.36,0,0,1,.09.24.33.33,0,0,1-.09.23.28.28,0,0,1-.44,0,.33.33,0,0,1-.09-.23A.36.36,0,0,1,133.29,43.29Z" class="cls-1"></path><path d="M137.32,48.06a.54.54,0,0,0,.27-.07l.17-.11.06.21a.64.64,0,0,1-.27.23.94.94,0,0,1-.45.11.67.67,0,0,1-.57-.24,1.34,1.34,0,0,1-.17-.75V45.16h-.55v-.22l.53-.1.11-.31c0-.09.06-.19.1-.29a1.6,1.6,0,0,1,.11-.29l.21-.08s0,0,0,0,0,0,0,0v.94h.8v.3h-.8v2.28C136.89,47.85,137,48.06,137.32,48.06Z" class="cls-1"></path><path d="M142.28,44.86h.78v.06a.2.2,0,0,0-.11,0,.31.31,0,0,0-.08.12l-1.36,3.71a3.09,3.09,0,0,1-.43.81.79.79,0,0,1-.65.36.72.72,0,0,1-.35-.08.4.4,0,0,1-.17-.18.38.38,0,0,1,.07-.22.33.33,0,0,1,.14-.13l.3,0,.15.05c.25,0,.45-.27.62-.79l.11-.35L140,45s0-.08-.08-.09a.28.28,0,0,0-.13,0v-.06h1v.06a.64.64,0,0,0-.2,0,.09.09,0,0,0,0,.08.34.34,0,0,0,0,.09l1,2.51.91-2.6a.08.08,0,0,0,0-.08.33.33,0,0,0-.15,0Z" class="cls-1"></path><path d="M144.85,49.58l.21-.17a2,2,0,0,0,.21-.2.87.87,0,0,0,.15-.25.73.73,0,0,0,.06-.3.44.44,0,0,0,0-.16l0-.16-.11,0-.12,0a.38.38,0,0,1-.3-.13.41.41,0,0,1-.12-.3.38.38,0,0,1,0-.19.33.33,0,0,1,.12-.14.28.28,0,0,1,.15-.08.4.4,0,0,1,.15,0,.63.63,0,0,1,.22,0,.65.65,0,0,1,.21.16.76.76,0,0,1,.16.26,1.08,1.08,0,0,1,.06.38,1.24,1.24,0,0,1,0,.33,1.09,1.09,0,0,1-.13.34,1.3,1.3,0,0,1-.39.44c-.15.09-.29.18-.43.25Z" class="cls-1"></path><path d="M153.75,48.06a1.64,1.64,0,0,1-1.11.39,2.59,2.59,0,0,1-.68-.09l-.29-.09-.19-.05a.1.1,0,0,0-.1.05.2.2,0,0,0,0,.08h-.09l-.12-1.11.07,0a1.41,1.41,0,0,0,.21.35,1.72,1.72,0,0,0,.31.29,1.18,1.18,0,0,0,.39.19,1.36,1.36,0,0,0,.47.08A1,1,0,0,0,153,48a.77.77,0,0,0,.31-.19.83.83,0,0,0,.21-.28.82.82,0,0,0,.08-.35.85.85,0,0,0-.3-.68,3.34,3.34,0,0,0-.34-.25,3.86,3.86,0,0,0-.42-.26,4.7,4.7,0,0,1-.5-.29,3.3,3.3,0,0,1-.4-.32,1.17,1.17,0,0,1-.37-.91,1.09,1.09,0,0,1,.41-.86,1.45,1.45,0,0,1,1-.37,2,2,0,0,1,.6.1l.26.08.18,0a.15.15,0,0,0,.11-.06.16.16,0,0,0,0-.08h.08l.1,1.11h-.11a1.29,1.29,0,0,0-.42-.59,1.31,1.31,0,0,0-.82-.24.92.92,0,0,0-.62.22.74.74,0,0,0-.24.56.84.84,0,0,0,.36.63,6.42,6.42,0,0,0,.84.53l0,0a3.71,3.71,0,0,1,.53.32,2,2,0,0,1,.4.35,1.37,1.37,0,0,1,.24.4,1.51,1.51,0,0,1,.08.48A1.15,1.15,0,0,1,153.75,48.06Z" class="cls-1"></path><path d="M156.85,48.24s.06.06.13.06H157v.06H156V48.3h.09c.09,0,.15,0,.18-.07s0-.12,0-.24V45.34a.87.87,0,0,0,0-.18s0,0-.1,0h-.07l-.15,0v0l.72-.25h.14V48A.56.56,0,0,0,156.85,48.24Zm-.48-5a.29.29,0,0,1,.44,0,.36.36,0,0,1,.09.24.33.33,0,0,1-.09.23.27.27,0,0,1-.44,0,.33.33,0,0,1-.09-.23A.36.36,0,0,1,156.37,43.29Z" class="cls-1"></path><path d="M162.05,48.24a.08.08,0,0,0,.08.06h0v.06h-.94V48.3h.08c.07,0,.13,0,.15-.07a.57.57,0,0,0,0-.24V46a1,1,0,0,0-.18-.62.59.59,0,0,0-.51-.23.84.84,0,0,0-.62.24,1.16,1.16,0,0,0-.31.6v2a1,1,0,0,0,0,.23s0,.06.1.06h0v.06h-.94V48.3h.07c.07,0,.12,0,.14-.07a.45.45,0,0,0,0-.24V45.31a.76.76,0,0,0,0-.17.08.08,0,0,0-.08-.06h-.06l-.11,0v0l.63-.18.14,0v.65a1.87,1.87,0,0,1,.5-.51,1.2,1.2,0,0,1,.64-.17,1,1,0,0,1,.76.32A1.39,1.39,0,0,1,162,46v2A.62.62,0,0,0,162.05,48.24Z" class="cls-1"></path><path d="M164.48,45.14a1.3,1.3,0,0,1,.94-.36,1.35,1.35,0,0,1,.78.21h.21l.2,0,.25,0h.31v.36l-.44,0a.44.44,0,0,0-.19,0,1.06,1.06,0,0,1,.05.12,1.86,1.86,0,0,1,.09.28.91.91,0,0,1,0,.31,1.21,1.21,0,0,1-.37.9,1.19,1.19,0,0,1-.88.36,1.56,1.56,0,0,1-.46-.06.77.77,0,0,0-.24.14.39.39,0,0,0-.18.29s0,.09.09.13a1.05,1.05,0,0,0,.26.07l.38.05.49,0a3.61,3.61,0,0,1,.5.06,1.84,1.84,0,0,1,.41.16.66.66,0,0,1,.38.63,1,1,0,0,1-.54.83,2.47,2.47,0,0,1-1.27.32,2.36,2.36,0,0,1-1.09-.22.69.69,0,0,1-.4-.6.68.68,0,0,1,.23-.51l.23-.18a1.27,1.27,0,0,1,.27-.18c-.25-.13-.37-.27-.37-.44a.56.56,0,0,1,.18-.37l.18-.17.2-.16L164.6,47a.39.39,0,0,1-.1-.08,1.13,1.13,0,0,1-.39-.88A1.23,1.23,0,0,1,164.48,45.14Zm0,3.49a.52.52,0,0,0-.15.35.46.46,0,0,0,.28.4,1.79,1.79,0,0,0,.88.16,2.32,2.32,0,0,0,.92-.17.55.55,0,0,0,.41-.5c0-.15-.1-.26-.29-.34a2.89,2.89,0,0,0-.84-.12l-.37,0-.43-.05A1.5,1.5,0,0,0,164.46,48.63Zm.38-3.36a.84.84,0,0,0-.2.59,1.35,1.35,0,0,0,.24.84.73.73,0,0,0,.63.31.66.66,0,0,0,.52-.21.88.88,0,0,0,.19-.6,1.63,1.63,0,0,0-.06-.45,1.82,1.82,0,0,0-.18-.37.73.73,0,0,0-.6-.33A.69.69,0,0,0,164.84,45.27Z" class="cls-1"></path><path d="M170.55,48.3a1.45,1.45,0,0,1-.58.14,1.1,1.1,0,0,1-.41-.07.92.92,0,0,1-.31-.2,1,1,0,0,1-.19-.29.86.86,0,0,1-.07-.36,1.06,1.06,0,0,1,.1-.5,1,1,0,0,1,.26-.34,1.2,1.2,0,0,1,.39-.2,3.19,3.19,0,0,1,.44-.13l.47-.1.43-.11v-.36a.75.75,0,0,0-.18-.56.73.73,0,0,0-.51-.17,1.12,1.12,0,0,0-.48.1.63.63,0,0,0-.32.25l0,.15a.1.1,0,0,1-.11.09l-.08,0c-.1,0-.16-.12-.16-.27s.16-.27.38-.39a1.62,1.62,0,0,1,.81-.18,1,1,0,0,1,1.14,1.12v1.8a1.51,1.51,0,0,0,0,.34c0,.08.06.13.11.13l.11,0,.08,0v.11a1.46,1.46,0,0,1-.25.13.81.81,0,0,1-.31.06.2.2,0,0,1-.19-.15,1.45,1.45,0,0,1-.07-.41A1.57,1.57,0,0,1,170.55,48.3Zm.53-1.88-.46.11-.45.14a1.29,1.29,0,0,0-.33.18.6.6,0,0,0-.22.23.66.66,0,0,0-.07.32.64.64,0,0,0,.16.45.58.58,0,0,0,.47.18.78.78,0,0,0,.35-.07.9.9,0,0,0,.29-.16.79.79,0,0,0,.19-.25.73.73,0,0,0,.07-.29Z" class="cls-1"></path><path d="M174.48,49.56a.45.45,0,0,0,.05.24.3.3,0,0,0,.22.07h.1v.05h-1.19v-.05h.09a.19.19,0,0,0,.16-.07.47.47,0,0,0,0-.24V45.31a.76.76,0,0,0,0-.17.08.08,0,0,0-.08-.06h-.06l-.12,0v0l.64-.19.14,0v.63a1.55,1.55,0,0,1,.54-.52,1.39,1.39,0,0,1,.6-.14,1.32,1.32,0,0,1,.57.12,1.24,1.24,0,0,1,.43.36,1.49,1.49,0,0,1,.27.55,2.73,2.73,0,0,1,.09.72,2.08,2.08,0,0,1-.44,1.36,1.39,1.39,0,0,1-1.13.54,1.34,1.34,0,0,1-.51-.11.84.84,0,0,1-.4-.37Zm.26-1.7a.82.82,0,0,0,.65.28.83.83,0,0,0,.75-.38,1.82,1.82,0,0,0,.27-1,2,2,0,0,0-.27-1.1.84.84,0,0,0-.75-.41.86.86,0,0,0-.36.07.94.94,0,0,0-.28.21,1,1,0,0,0-.2.32,1.29,1.29,0,0,0-.07.4v1A1,1,0,0,0,174.74,47.86Z" class="cls-1"></path><path d="M181.92,47.93a1.71,1.71,0,0,1-2.42,0,1.88,1.88,0,0,1-.46-1.32,1.92,1.92,0,0,1,.46-1.33,1.71,1.71,0,0,1,2.42,0,2.1,2.1,0,0,1,0,2.65Zm-.2-1.94a1.51,1.51,0,0,0-.25-.49,1,1,0,0,0-.83-.44.89.89,0,0,0-.77.44,2,2,0,0,0-.26,1.11,2.06,2.06,0,0,0,.09.62,1.88,1.88,0,0,0,.25.49,1,1,0,0,0,.83.43.88.88,0,0,0,.77-.43,2,2,0,0,0,.27-1.11A2.37,2.37,0,0,0,181.72,46Z" class="cls-1"></path><path d="M185.07,48.24s.1.06.21.06h.1v.06H184.2V48.3h.09a.17.17,0,0,0,.16-.07.43.43,0,0,0,.05-.24V45.31a.65.65,0,0,0,0-.17.07.07,0,0,0-.08-.06h-.07l-.12,0v0l.65-.22H185v.75a1.72,1.72,0,0,1,.43-.6.84.84,0,0,1,.52-.18.41.41,0,0,1,.23.06.42.42,0,0,1,.11.18.3.3,0,0,1-.11.26.24.24,0,0,1-.14.06h0a.37.37,0,0,0-.14-.07l-.16,0a.56.56,0,0,0-.46.3,1.26,1.26,0,0,0-.16.33,1.08,1.08,0,0,0-.05.36V48A.41.41,0,0,0,185.07,48.24Z" class="cls-1"></path><path d="M190.5,47.85a2,2,0,0,1-.34.3,1.87,1.87,0,0,1-.4.2,1.19,1.19,0,0,1-.45.08,1.34,1.34,0,0,1-1.09-.46,2,2,0,0,1-.38-1.29,2.13,2.13,0,0,1,.42-1.37,1.39,1.39,0,0,1,1.12-.53,1.13,1.13,0,0,1,1,.43,2.31,2.31,0,0,1,.39,1.16v.07h-2.44a1.89,1.89,0,0,0,.32,1.1,1,1,0,0,0,.9.44,1.23,1.23,0,0,0,.7-.2,1.55,1.55,0,0,0,.41-.37l.11.1A2.46,2.46,0,0,1,190.5,47.85Zm-.39-1.71a1.52,1.52,0,0,0-.24-.76.64.64,0,0,0-.57-.28.88.88,0,0,0-.73.35,1.44,1.44,0,0,0-.25.69Z" class="cls-1"></path><line y2="36.66" x2="111.89" x1="111.89" class="cls-2"></line><path d="M119.91,5.94a3.64,3.64,0,0,0,1.88.63c.75,0,1.18-.36,1.19-.88s-.3-.77-.85-1L121,4.21a1.76,1.76,0,0,1-1.28-1.62A1.91,1.91,0,0,1,121.86.78a4.58,4.58,0,0,1,2,.48,1.16,1.16,0,0,1-.36.78,4.05,4.05,0,0,0-1.6-.44c-.69,0-1.12.38-1.12.88s.32.64.78.84l1.08.47A1.94,1.94,0,0,1,124,5.52c0,1.08-.75,1.88-2.29,1.88a4.06,4.06,0,0,1-2.24-.7,1.18,1.18,0,0,1,.42-.76Z" class="cls-3"></path><path d="M125.59,6.31a1.38,1.38,0,0,1,.58-.13,1.45,1.45,0,0,1,.57.13,1.39,1.39,0,0,1,.08.46,1.48,1.48,0,0,1-.08.46,1.26,1.26,0,0,1-.57.13,1.24,1.24,0,0,1-.58-.13,1.25,1.25,0,0,1-.09-.46,1.18,1.18,0,0,1,.09-.46Z" class="cls-3"></path><path d="M132.4,3.92l1,0a1,1,0,0,0,1.14-1.12,1,1,0,0,0-1.14-1.13h-1V3.92Zm2,.56a1.24,1.24,0,0,1,.66.79l.41,1.09a1.54,1.54,0,0,0,.42.68.86.86,0,0,1-.67.31c-.37,0-.5-.21-.65-.61l-.47-1.26c-.16-.43-.37-.77-1-.77h-.76V7.28a2.74,2.74,0,0,1-.5,0,2.52,2.52,0,0,1-.48,0V1l.05-.07,2,0c1.3,0,2.12.67,2.12,1.92a1.72,1.72,0,0,1-1.19,1.7Z" class="cls-3"></path><path d="M138.77,4.93h1.88l-.43-1.36c-.17-.54-.36-1.19-.49-1.69h0c-.09.42-.26,1-.37,1.35l-.54,1.7Zm-.25.8L138,7.29a1.91,1.91,0,0,1-.43,0,1.73,1.73,0,0,1-.48-.07l0,0L139.19.9a3.56,3.56,0,0,1,.57,0,3.36,3.36,0,0,1,.56,0l2.1,6.31a1.06,1.06,0,0,1-.58.14c-.31,0-.47-.12-.59-.53l-.35-1.09h-2.38Z" class="cls-3"></path><path d="M144.87,6.54c.76,0,1-.45,1-1.45V.9a2.81,2.81,0,0,1,.5,0,2.7,2.7,0,0,1,.49,0V5c0,1.38-.29,2.42-1.91,2.42A2.94,2.94,0,0,1,143.5,7a1.34,1.34,0,0,1,.37-.74,2.13,2.13,0,0,0,1,.3Z" class="cls-3"></path><path d="M149.73,4.93h1.88l-.43-1.36c-.17-.54-.37-1.19-.5-1.69h0c-.1.42-.27,1-.37,1.35l-.54,1.7Zm-.25.8L149,7.29a1.91,1.91,0,0,1-.43,0,1.68,1.68,0,0,1-.48-.07l0,0L150.15.9a3.56,3.56,0,0,1,.57,0,3.36,3.36,0,0,1,.56,0l2.09,6.31a1,1,0,0,1-.58.14c-.3,0-.46-.12-.58-.53l-.35-1.09h-2.38Z" class="cls-3"></path><path d="M155.81,3.92l1,0A1,1,0,0,0,158,2.78a1,1,0,0,0-1.14-1.13h-1V3.92Zm2,.56a1.25,1.25,0,0,1,.67.79l.41,1.09a1.38,1.38,0,0,0,.42.68.86.86,0,0,1-.67.31c-.38,0-.51-.21-.66-.61l-.47-1.26c-.15-.43-.36-.77-.94-.77h-.77V7.28a2.56,2.56,0,0,1-.49,0,2.63,2.63,0,0,1-.49,0V1l.06-.07,2,0c1.3,0,2.12.67,2.12,1.92a1.72,1.72,0,0,1-1.2,1.7Z" class="cls-3"></path><path d="M162.19,4.93h1.88l-.43-1.36c-.17-.54-.37-1.19-.5-1.69h0c-.09.42-.26,1-.36,1.35l-.54,1.7Zm-.25.8-.5,1.56a1.91,1.91,0,0,1-.43,0,1.68,1.68,0,0,1-.48-.07l0,0L162.61.9a3.56,3.56,0,0,1,.57,0,3.36,3.36,0,0,1,.56,0l2.09,6.31a1,1,0,0,1-.58.14c-.31,0-.46-.12-.59-.53l-.34-1.09h-2.38Z" class="cls-3"></path><path d="M167.75,2.42V1.73H166.1a2.22,2.22,0,0,1,0-.84h4.3a1.59,1.59,0,0,1,.06.39c0,.33-.18.45-.57.45h-1.14V7.28a3.14,3.14,0,0,1-1,0V2.42Z" class="cls-3"></path><path d="M176.51.91V7.27a4.27,4.27,0,0,1-.59.05,4.73,4.73,0,0,1-.6,0l-2-3.91c-.23-.47-.42-.91-.59-1.3h0c0,.64.09,1.58.09,2.29V7.28a2.68,2.68,0,0,1-.46,0,2.71,2.71,0,0,1-.47,0V.91a4.4,4.4,0,0,1,.59-.05,4.73,4.73,0,0,1,.6,0l2,3.91c.23.49.44,1,.62,1.36h0c0-.75-.07-1.71-.07-2.35V1.48c0-.44.13-.62.53-.62h.33l0,.05Z" class="cls-3"></path><path d="M179.67,4.93h1.88l-.43-1.36c-.17-.54-.37-1.19-.5-1.69h-.05c-.09.42-.26,1-.36,1.35l-.54,1.7Zm-.26.8-.49,1.56a1.91,1.91,0,0,1-.43,0,1.75,1.75,0,0,1-.49-.07l0,0L180.09.9a3.56,3.56,0,0,1,.57,0,3.36,3.36,0,0,1,.56,0l2.09,6.31a1,1,0,0,1-.58.14c-.31,0-.47-.12-.59-.53l-.34-1.09h-2.39Z" class="cls-3"></path><path d="M185.19.9a4.24,4.24,0,0,1,.67,0,3.61,3.61,0,0,1,.63,0l.89,2.92c.09.29.33,1.23.37,1.49h.06c0-.26.28-1.2.36-1.49L189.06.9a3.83,3.83,0,0,1,.64,0,4.3,4.3,0,0,1,.67,0l.49,6.37a2,2,0,0,1-.5.06,2.22,2.22,0,0,1-.45,0l-.21-3.42c0-.5-.07-1.34-.08-1.9h-.06l-1.28,4.34a4.21,4.21,0,0,1-.51,0,3.89,3.89,0,0,1-.49,0L186,2h-.05c0,.56-.05,1.4-.08,1.9l-.22,3.42a2.22,2.22,0,0,1-.45,0,1.83,1.83,0,0,1-.49-.06L185.19.9Z" class="cls-3"></path><path d="M119.91,15.58a3.56,3.56,0,0,0,1.88.64c.75,0,1.18-.37,1.19-.88s-.3-.78-.85-1l-1.1-.48a1.74,1.74,0,0,1-1.28-1.61,1.91,1.91,0,0,1,2.11-1.81,4.58,4.58,0,0,1,2,.48,1.16,1.16,0,0,1-.36.78,3.89,3.89,0,0,0-1.6-.44c-.69,0-1.12.38-1.12.87s.32.65.78.85l1.08.46a2,2,0,0,1,1.4,1.74c0,1.07-.75,1.88-2.29,1.88a4.06,4.06,0,0,1-2.24-.7,1.23,1.23,0,0,1,.42-.77Z" class="cls-3"></path><path d="M127.88,11.23c-1,0-1.5.89-1.5,2.54s.58,2.41,1.55,2.41a2.63,2.63,0,0,0,1.67-.71,1.23,1.23,0,0,1,.5.65,3.39,3.39,0,0,1-2.34.93c-1.78,0-2.42-1.63-2.42-3.28,0-2.33,1.18-3.34,2.56-3.34a2,2,0,0,1,2.25,1.82.5.5,0,0,1-.56.56,1.45,1.45,0,0,1-.41-.06c0-.71-.29-1.52-1.3-1.52Z" class="cls-3"></path><path d="M135.37,14.74v-.69h-2.63c0,.25,0,.43,0,.69v2.19a4.24,4.24,0,0,1-.51,0,3.87,3.87,0,0,1-.48,0V10.55a2.59,2.59,0,0,1,.48,0,2.85,2.85,0,0,1,.51,0v2c0,.26,0,.44,0,.69h2.63V10.55a2.63,2.63,0,0,1,.49,0,2.92,2.92,0,0,1,.51,0v6.38a4.19,4.19,0,0,1-.5,0,4.07,4.07,0,0,1-.5,0V14.74Z" class="cls-3"></path><path d="M140.71,16.25c1.3,0,1.56-1.39,1.56-2.52s-.26-2.51-1.56-2.51-1.57,1.38-1.57,2.51.26,2.52,1.57,2.52ZM139.1,11a2.29,2.29,0,0,1,1.61-.55,2.34,2.34,0,0,1,1.62.55,3.62,3.62,0,0,1,1,2.75,3.63,3.63,0,0,1-1,2.76,2.34,2.34,0,0,1-1.62.56,2.29,2.29,0,0,1-1.61-.56,3.63,3.63,0,0,1-1-2.76,3.62,3.62,0,0,1,1-2.75Z" class="cls-3"></path><path d="M147.34,16.25c1.3,0,1.56-1.39,1.56-2.52s-.26-2.51-1.56-2.51-1.57,1.38-1.57,2.51.26,2.52,1.57,2.52ZM145.73,11A2.65,2.65,0,0,1,149,11a3.62,3.62,0,0,1,1,2.75,3.63,3.63,0,0,1-1,2.76,2.61,2.61,0,0,1-3.23,0,3.63,3.63,0,0,1-1-2.76,3.62,3.62,0,0,1,1-2.75Z" class="cls-3"></path><path d="M155.37,16.07a2.77,2.77,0,0,1,0,.39.57.57,0,0,1-.64.48h-2.44a.56.56,0,0,1-.58-.62V10.56l.07-.05h.37c.41,0,.56.2.56.63v5a8.2,8.2,0,0,1,.83,0Z" class="cls-3"></path><path d="M161.87,16.25c1.3,0,1.56-1.39,1.56-2.52s-.26-2.51-1.56-2.51-1.56,1.38-1.56,2.51.26,2.52,1.56,2.52ZM160.26,11a2.65,2.65,0,0,1,3.23,0,3.62,3.62,0,0,1,1,2.75,3.63,3.63,0,0,1-1,2.76,2.61,2.61,0,0,1-3.23,0,3.63,3.63,0,0,1-1-2.76,3.62,3.62,0,0,1,1-2.75Z" class="cls-3"></path><path d="M166.71,17a3.91,3.91,0,0,1-.49,0V10.6l.05,0H170a1.27,1.27,0,0,1,.06.39c0,.33-.19.46-.56.46H167.2c0,.37,0,.75,0,1.1v.82h2.27a2.1,2.1,0,0,1,0,.41,2.06,2.06,0,0,1,0,.42h-2.27v2.8a4.19,4.19,0,0,1-.5,0Z" class="cls-3"></path><path d="M120.09,20.19a2.63,2.63,0,0,1,.49,0,2.81,2.81,0,0,1,.5,0v6.38a2.81,2.81,0,0,1-.5,0,2.63,2.63,0,0,1-.49,0V20.19Z" class="cls-3"></path><path d="M127.79,20.2v6.36a4.54,4.54,0,0,1-.6.05,4.85,4.85,0,0,1-.6,0l-2-3.91c-.22-.47-.42-.91-.59-1.3h0c0,.64.08,1.59.08,2.29v2.91a2.68,2.68,0,0,1-.46,0,2.53,2.53,0,0,1-.46,0V20.2a4.13,4.13,0,0,1,.58-.05,4.52,4.52,0,0,1,.6,0l2,3.92c.24.48.44,1,.62,1.35h0c0-.74-.08-1.71-.08-2.35V20.77c0-.44.13-.62.54-.62h.32l.06.05Z" class="cls-3"></path><path d="M130.9,21.72c0-.26,0-.43,0-.7h-1.65a2.23,2.23,0,0,1,0-.84h4.29a1.59,1.59,0,0,1,.06.39c0,.33-.18.45-.56.45H131.9v5.55a2.85,2.85,0,0,1-.49,0,3,3,0,0,1-.51,0V21.72Z" class="cls-3"></path><path d="M139,26.12c-.05.31-.28.46-.63.46h-2.78A.55.55,0,0,1,135,26V20.25l.07-.06h3.75a1.89,1.89,0,0,1,0,.39,1.55,1.55,0,0,1-.07.45H136c0,.25,0,.37,0,.61V23h2.34a1.71,1.71,0,0,1,0,.82H136v1.54c0,.16,0,.29,0,.47a5.72,5.72,0,0,1,.62,0H139a1.89,1.89,0,0,1,0,.39Z" class="cls-3"></path><path d="M141.58,23.21l1,0a1,1,0,0,0,1.14-1.12,1,1,0,0,0-1.14-1.13h-1v2.28Zm2,.56a1.23,1.23,0,0,1,.66.8l.41,1.09a1.56,1.56,0,0,0,.42.67.83.83,0,0,1-.67.31c-.37,0-.5-.21-.65-.61l-.47-1.26c-.16-.43-.36-.77-.94-.77h-.77v2.57a2.74,2.74,0,0,1-.5,0,2.52,2.52,0,0,1-.48,0V20.25l.05-.07,2,0a1.86,1.86,0,0,1,2.12,1.92,1.71,1.71,0,0,1-1.19,1.7Z" class="cls-3"></path><path d="M151.26,20.2v6.36a4.54,4.54,0,0,1-.6.05,4.59,4.59,0,0,1-.59,0l-2-3.91c-.22-.47-.42-.91-.58-1.3h0c0,.64.08,1.59.08,2.29v2.91a2.53,2.53,0,0,1-.46,0,2.6,2.6,0,0,1-.46,0V20.2a4.27,4.27,0,0,1,.59-.05,4.48,4.48,0,0,1,.59,0l2,3.92c.23.48.44,1,.61,1.35h0c0-.74-.08-1.71-.08-2.35V20.77c0-.44.14-.62.54-.62h.33l0,.05Z" class="cls-3"></path><path d="M154.41,24.22h1.88l-.43-1.36c-.17-.54-.36-1.19-.49-1.69h-.05c-.1.42-.26,1-.37,1.36l-.54,1.69Zm-.25.8-.5,1.56a1.82,1.82,0,0,1-.42,0,2.26,2.26,0,0,1-.49-.06l0,0,2.11-6.32a3.56,3.56,0,0,1,.57,0,3.36,3.36,0,0,1,.56,0l2.1,6.32a1.16,1.16,0,0,1-.58.13c-.31,0-.47-.11-.59-.52l-.35-1.1h-2.38Z" class="cls-3"></path><path d="M160,21.72c0-.26,0-.43,0-.7h-1.66a3,3,0,0,1,0-.84h4.3a1.59,1.59,0,0,1,.06.39c0,.33-.18.45-.56.45H161v5.55a3.15,3.15,0,0,1-1,0V21.72Z" class="cls-3"></path><path d="M164.1,20.19a2.7,2.7,0,0,1,.49,0,2.81,2.81,0,0,1,.5,0v6.38a2.81,2.81,0,0,1-.5,0,2.7,2.7,0,0,1-.49,0V20.19Z" class="cls-3"></path><path d="M169.44,25.9c1.29,0,1.56-1.39,1.56-2.52s-.27-2.52-1.56-2.52-1.57,1.39-1.57,2.52.26,2.52,1.57,2.52Zm-1.62-5.27a2.61,2.61,0,0,1,3.23,0,3.62,3.62,0,0,1,1,2.75,3.63,3.63,0,0,1-1,2.76,2.61,2.61,0,0,1-3.23,0,3.63,3.63,0,0,1-1-2.76,3.62,3.62,0,0,1,1-2.75Z" class="cls-3"></path><path d="M178.43,20.2v6.36a4.41,4.41,0,0,1-.6.05,4.59,4.59,0,0,1-.59,0l-2-3.91c-.22-.47-.41-.91-.58-1.3h0c0,.64.08,1.59.08,2.29v2.91a2.5,2.5,0,0,1-.45,0,2.63,2.63,0,0,1-.47,0V20.2a4.4,4.4,0,0,1,.59-.05,4.73,4.73,0,0,1,.6,0l2,3.92c.23.48.44,1,.61,1.35h0c-.05-.74-.07-1.71-.07-2.35V20.77c0-.44.13-.62.53-.62h.32l.06.05Z" class="cls-3"></path><path d="M181.58,24.22h1.88L183,22.86c-.17-.54-.36-1.19-.49-1.69h0c-.09.42-.26,1-.37,1.36l-.54,1.69Zm-.25.8-.49,1.56a2,2,0,0,1-.43,0,2.26,2.26,0,0,1-.49-.06l0,0L182,20.19a3.56,3.56,0,0,1,.57,0,3.36,3.36,0,0,1,.56,0l2.1,6.32a1.16,1.16,0,0,1-.58.13c-.31,0-.47-.11-.59-.52l-.35-1.1h-2.38Z" class="cls-3"></path><path d="M190.33,25.72a2.77,2.77,0,0,1,0,.39.57.57,0,0,1-.64.47h-2.44a.55.55,0,0,1-.58-.61V20.21l.07-.06h.37c.41,0,.56.2.56.64v5a8.05,8.05,0,0,1,.83,0Z" class="cls-3"></path><path d="M119.91,34.88a3.64,3.64,0,0,0,1.88.63c.75,0,1.18-.36,1.19-.88s-.3-.77-.85-1l-1.1-.47a1.76,1.76,0,0,1-1.28-1.62,1.91,1.91,0,0,1,2.11-1.81,4.58,4.58,0,0,1,2,.48,1.16,1.16,0,0,1-.36.78,4.05,4.05,0,0,0-1.6-.44c-.69,0-1.12.38-1.12.88s.32.64.78.84l1.08.47a1.94,1.94,0,0,1,1.4,1.73c0,1.08-.75,1.88-2.29,1.88a4.06,4.06,0,0,1-2.24-.7,1.18,1.18,0,0,1,.42-.76Z" class="cls-3"></path><path d="M126.81,31.36c0-.25,0-.43,0-.69h-1.65a2.23,2.23,0,0,1,0-.84h4.3a2.3,2.3,0,0,1,.05.39c0,.33-.18.45-.56.45h-1.15v5.55a2.77,2.77,0,0,1-.49,0,3,3,0,0,1-.51,0V31.36Z" class="cls-3"></path><path d="M135.61,34a2.36,2.36,0,1,1-4.72,0V29.86l.05-.06h.39c.4,0,.55.2.55.64V34c0,1,.47,1.56,1.36,1.56s1.37-.53,1.37-1.56V29.84a2.59,2.59,0,0,1,.48,0,3,3,0,0,1,.52,0V34Z" class="cls-3"></path><path d="M139.73,30.61H138.6v4.86h1.13c1.38,0,1.58-1.32,1.58-2.43s-.2-2.42-1.58-2.42Zm1.62,5.18a2.77,2.77,0,0,1-1.62.48c-.76,0-1.25,0-2.06,0l-.06-.07V29.89l.06-.06c.81,0,1.3,0,2.06,0a2.77,2.77,0,0,1,1.62.48,3.26,3.26,0,0,1,1,2.75,3.23,3.23,0,0,1-1,2.76Z" class="cls-3"></path><path d="M144.11,29.84a2.63,2.63,0,0,1,.49,0,2.81,2.81,0,0,1,.5,0v6.38a2.81,2.81,0,0,1-.5,0,2.63,2.63,0,0,1-.49,0V29.84Z" class="cls-3"></path><path d="M151.13,35.76a.55.55,0,0,1-.63.47h-2.78a.55.55,0,0,1-.57-.62V29.89l.07-.05H151a2.82,2.82,0,0,1,0,.39,1.3,1.3,0,0,1-.07.45h-2.22c-.14,0-.37,0-.58,0V32.6h2.34a1.71,1.71,0,0,1,0,.82h-2.34v2a5.4,5.4,0,0,1,.61,0h2.42a1.85,1.85,0,0,1,0,.38Z" class="cls-3"></path><path d="M152.89,34.88a3.64,3.64,0,0,0,1.87.63c.76,0,1.19-.36,1.2-.88s-.31-.77-.85-1l-1.1-.47a1.75,1.75,0,0,1-1.28-1.62,1.91,1.91,0,0,1,2.11-1.81,4.61,4.61,0,0,1,2,.48,1.21,1.21,0,0,1-.36.78,4.1,4.1,0,0,0-1.6-.44c-.69,0-1.12.38-1.12.88s.31.64.77.84l1.09.47a1.94,1.94,0,0,1,1.4,1.73c0,1.08-.75,1.88-2.29,1.88a4,4,0,0,1-2.24-.7,1.14,1.14,0,0,1,.42-.76Z" class="cls-3"></path><path d="M57.09,19.25a10.4,10.4,0,0,1,1.84,6.05,10.93,10.93,0,0,1-.09,1.39,10.17,10.17,0,0,1-4.43,7.57c-2,1.42-5.72,2.08-8.69,2.08H35.53v-8c0-.15.07-.22.21-.22s.18.09.21.26c.3,1.74,1.27,2.65,3.24,3.92,1.81,1.17,6.69,1.33,10.15-.09,2.15-.88,3.73-2.33,3.73-4.26,0-2.49-1.06-3.84-3.35-5-3.27-1.66-6.33-2.62-8.71-3.7A10,10,0,0,1,35.69,7.73q1.85-7,11.22-7a32.16,32.16,0,0,1,9.63,1.57V9.94c0,.35-.25.47-.59.35Q55,7.07,50.81,4.46A9.92,9.92,0,0,0,45.49,3c-2.4,0-4,.55-4.89,2.14-1.65,3.33.54,5.29,2.71,6.34,0,0,7.68,3.29,9.46,4.18a10.77,10.77,0,0,1,4.32,3.56Z" class="cls-4"></path><path d="M77,36a.21.21,0,0,1-.21.22H62.53a.21.21,0,0,1-.17-.22c0-.12.07-.19.22-.22q2.39-.48,3.09-4a29.58,29.58,0,0,0,.3-5.13V23c0-6.85-1.28-8.67-3.59-9.13a.29.29,0,0,1-.25-.22c0-.12.07-.19.21-.22H73.46V26.64c0,5.35.54,8.58,3.28,9.18.13,0,.22.07.25.22Z" class="cls-4"></path><path d="M73.26,5.63a4.87,4.87,0,1,0-4.87,4.87,4.87,4.87,0,0,0,4.87-4.87Z" class="cls-5"></path><path d="M12.14,5.05c.7-1.53,2.22-1.95,4.09-2,3.18.18,5.14,1.8,6.14,5.1a11.7,11.7,0,0,1,.45,3.34,7,7,0,0,1-2.35,5.48,7.75,7.75,0,0,1-5.32,1.92,9.62,9.62,0,0,1-3-.48V5.05ZM32.5,35.85A7.57,7.57,0,0,1,29,34.07c-1.8-1.6-6.45-9.86-8.47-13.55,5-1.45,8.87-5.35,8.87-11a7.69,7.69,0,0,0-2.73-6q-3-2.7-8.45-2.7H.21C.1.75.13.87.13,1s.06.19.2.22c2.4.47,3.49,2.34,4.11,4.23a24,24,0,0,1,.37,5.79V26.58a33.78,33.78,0,0,1-.33,5.31c-.47,2.38-1.51,3.73-3.1,4a.29.29,0,0,0-.25.21q0,.18.21.18H17.08c.11,0,.17-.06.17-.18s-.07-.18-.21-.21q-3.6-.75-4.57-3.58a22.76,22.76,0,0,1-.41-5.8l.08-5.84c.55.12,1.09.21,1.64.28.74,1.87,5.12,12.55,8.93,14.55a8.87,8.87,0,0,0,4.06.78H32.5a.28.28,0,0,0,.21-.22.24.24,0,0,0-.21-.26Z" class="cls-4"></path><path d="M102.23,19.25a10.33,10.33,0,0,1,1.84,6.05,13.1,13.1,0,0,1-.08,1.39,10.18,10.18,0,0,1-4.44,7.57c-2,1.42-5.72,2.08-8.69,2.08H80.67v-8c0-.15.07-.22.21-.22s.18.09.21.26c.31,1.74,1.27,2.65,3.25,3.92,1.8,1.17,6.69,1.33,10.15-.09,2.14-.88,3.72-2.33,3.72-4.26,0-2.49-1.06-3.84-3.35-5-3.27-1.66-6.32-2.62-8.7-3.7A10,10,0,0,1,80.84,7.73q1.84-7,11.22-7a32.16,32.16,0,0,1,9.63,1.57V9.94c-.06.35-.26.47-.59.35Q100.19,7.07,96,4.46A9.89,9.89,0,0,0,90.63,3c-2.4,0-4,.55-4.89,2.14-1.64,3.33.54,5.29,2.72,6.34,0,0,7.68,3.29,9.46,4.18a10.74,10.74,0,0,1,4.31,3.56Z" class="cls-4"></path></svg>